<svg width="50px" height="50px" viewBox="0 0 50 50" version="1.1" xmlns="http://www.w3.org/2000/svg" xmlns:xlink="http://www.w3.org/1999/xlink">
    <!-- Generator: Sketch 41 (35326) - http://www.bohemiancoding.com/sketch -->
    <desc>Created with Sketch.</desc>
    <defs>
        <circle id="path-1" cx="25" cy="25" r="25"></circle>
    </defs>
    <g id="icons/stroked/person" stroke="none" stroke-width="1" fill="none" fill-rule="evenodd">
        <mask id="mask-2" fill="white">
            <use xlink:href="#path-1"></use>
        </mask>
        <use id="Mask" fill="#D8D8D8" xlink:href="#path-1"></use>
        <path d="M37.8278952,40.4347921 C37.7543452,40.4116822 36.0636028,39.8912476 31.9566062,39.5566165 C31.6596821,38.8226466 31.4581006,37.7974922 31.3591259,36.5430877 C34.7460587,33.8188946 36.8317919,29.0712002 36.8317919,24.0147577 C36.8317919,16.345974 35.9364793,10 24.9294016,10 C13.9286801,10 13.0333676,16.345974 13.0333676,24.0147577 C13.0333676,29.1091004 15.0410106,33.7246063 18.4288515,36.4820776 C18.3108082,37.7281625 18.0965144,38.7468462 17.8004982,39.4808161 C13.3620726,39.8099008 12.0245519,40.4153798 11.9564501,40.45328 C5.84907466,42.7744367 3.125,46.3555442 3.125,51.5783778 L3.125,52.5 L46.7101946,52.5 L46.7101946,51.5783778 C46.7101946,45.8674635 43.7945267,42.073745 37.8278952,40.4347921 L37.8278952,40.4347921 Z M4.9746467,50.6558313 C5.27247886,46.7484122 7.54798923,44.0981708 12.6574453,42.153243 C12.6701576,42.1476966 13.9895178,41.5764203 18.44792,41.2824626 L18.9409775,41.2501088 L19.1816041,40.811021 C19.7654641,39.7479663 20.1350302,38.1709479 20.2794062,36.1215634 L20.3157272,35.6159192 L19.9107481,35.3136419 C16.7898665,32.98509 14.8494174,28.6552223 14.8494174,24.0147577 C14.8494174,16.6630416 15.5513206,11.8441687 24.9294016,11.8441687 C34.3138389,11.8441687 35.0157421,16.6630416 35.0157421,24.0147577 C35.0157421,28.6894249 33.0507762,33.038705 29.8881255,35.3617105 L29.4858705,35.657517 L29.5140193,36.1594636 C29.6275224,38.2236384 29.9825601,39.812674 30.5718683,40.8831238 L30.8088628,41.318514 L31.2982882,41.3554898 C35.5351323,41.667011 37.274908,42.1920676 37.3212173,42.2050091 C42.2200116,43.5527775 44.5799682,46.3268879 44.863272,50.6558313 L4.9746467,50.6558313 L4.9746467,50.6558313 Z" fill="#CACACA" mask="url(#mask-2)"></path>
    </g>
</svg>
